<?xml version="1.0" encoding="UTF-8" standalone="no"?>
<!DOCTYPE svg PUBLIC "-//W3C//DTD SVG 1.1//EN"
 "http://www.w3.org/Graphics/SVG/1.1/DTD/svg11.dtd">
<!-- Generated by graphviz version 8.0.5 (20230430.1635)
 -->
<!-- Pages: 1 -->
<svg width="571pt" height="404pt"
 viewBox="0.00 0.00 571.07 404.00" xmlns="http://www.w3.org/2000/svg" xmlns:xlink="http://www.w3.org/1999/xlink">
<g id="graph0" class="graph" transform="scale(1 1) rotate(0) translate(4 400)">
<polygon fill="white" stroke="none" points="-4,4 -4,-400 567.07,-400 567.07,4 -4,4"/>
<!-- [root] provider[&quot;registry.terraform.io/yandex&#45;cloud/yandex&quot;] -->
<g id="node1" class="node">
<title>[root] provider[&quot;registry.terraform.io/yandex&#45;cloud/yandex&quot;]</title>
<polygon fill="none" stroke="black" points="281.54,-36 0,-18 281.54,0 563.07,-18 281.54,-36"/>
<text text-anchor="middle" x="281.54" y="-11.82" font-family="Times,serif" font-size="14.00">provider[&quot;registry.terraform.io/yandex&#45;cloud/yandex&quot;]</text>
</g>
<!-- [root] yandex_compute_instance.vm (expand) -->
<g id="node2" class="node">
<title>[root] yandex_compute_instance.vm (expand)</title>
<polygon fill="none" stroke="black" points="227.41,-252 45.66,-252 45.66,-216 227.41,-216 227.41,-252"/>
<text text-anchor="middle" x="136.54" y="-227.82" font-family="Times,serif" font-size="14.00">yandex_compute_instance.vm</text>
</g>
<!-- [root] yandex_vpc_subnet.net&#45;a (expand) -->
<g id="node4" class="node">
<title>[root] yandex_vpc_subnet.net&#45;a (expand)</title>
<polygon fill="none" stroke="black" points="186.54,-180 32.54,-180 32.54,-144 186.54,-144 186.54,-180"/>
<text text-anchor="middle" x="109.54" y="-155.82" font-family="Times,serif" font-size="14.00">yandex_vpc_subnet.net&#45;a</text>
</g>
<!-- [root] yandex_compute_instance.vm (expand)&#45;&gt;[root] yandex_vpc_subnet.net&#45;a (expand) -->
<g id="edge5" class="edge">
<title>[root] yandex_compute_instance.vm (expand)&#45;&gt;[root] yandex_vpc_subnet.net&#45;a (expand)</title>
<path fill="none" stroke="black" d="M129.86,-215.7C126.89,-207.98 123.31,-198.71 119.99,-190.11"/>
<polygon fill="black" stroke="black" points="123,-189.17 116.13,-181.1 116.47,-191.69 123,-189.17"/>
</g>
<!-- [root] yandex_vpc_network.network (expand) -->
<g id="node3" class="node">
<title>[root] yandex_vpc_network.network (expand)</title>
<polygon fill="none" stroke="black" points="371.66,-108 191.41,-108 191.41,-72 371.66,-72 371.66,-108"/>
<text text-anchor="middle" x="281.54" y="-83.83" font-family="Times,serif" font-size="14.00">yandex_vpc_network.network</text>
</g>
<!-- [root] yandex_vpc_network.network (expand)&#45;&gt;[root] provider[&quot;registry.terraform.io/yandex&#45;cloud/yandex&quot;] -->
<g id="edge6" class="edge">
<title>[root] yandex_vpc_network.network (expand)&#45;&gt;[root] provider[&quot;registry.terraform.io/yandex&#45;cloud/yandex&quot;]</title>
<path fill="none" stroke="black" d="M281.54,-71.7C281.54,-64.24 281.54,-55.32 281.54,-46.97"/>
<polygon fill="black" stroke="black" points="285.04,-47.1 281.54,-37.1 278.04,-47.1 285.04,-47.1"/>
</g>
<!-- [root] yandex_vpc_subnet.net&#45;a (expand)&#45;&gt;[root] yandex_vpc_network.network (expand) -->
<g id="edge7" class="edge">
<title>[root] yandex_vpc_subnet.net&#45;a (expand)&#45;&gt;[root] yandex_vpc_network.network (expand)</title>
<path fill="none" stroke="black" d="M152.49,-143.52C175.57,-134.13 204.21,-122.47 228.64,-112.53"/>
<polygon fill="black" stroke="black" points="229.88,-115.39 237.83,-108.38 227.24,-108.91 229.88,-115.39"/>
</g>
<!-- [root] yandex_vpc_subnet.net&#45;b (expand) -->
<g id="node5" class="node">
<title>[root] yandex_vpc_subnet.net&#45;b (expand)</title>
<polygon fill="none" stroke="black" points="358.91,-180 204.16,-180 204.16,-144 358.91,-144 358.91,-180"/>
<text text-anchor="middle" x="281.54" y="-155.82" font-family="Times,serif" font-size="14.00">yandex_vpc_subnet.net&#45;b</text>
</g>
<!-- [root] yandex_vpc_subnet.net&#45;b (expand)&#45;&gt;[root] yandex_vpc_network.network (expand) -->
<g id="edge8" class="edge">
<title>[root] yandex_vpc_subnet.net&#45;b (expand)&#45;&gt;[root] yandex_vpc_network.network (expand)</title>
<path fill="none" stroke="black" d="M281.54,-143.7C281.54,-136.24 281.54,-127.32 281.54,-118.97"/>
<polygon fill="black" stroke="black" points="285.04,-119.1 281.54,-109.1 278.04,-119.1 285.04,-119.1"/>
</g>
<!-- [root] yandex_vpc_subnet.net&#45;c (expand) -->
<g id="node6" class="node">
<title>[root] yandex_vpc_subnet.net&#45;c (expand)</title>
<polygon fill="none" stroke="black" points="463.54,-252 309.54,-252 309.54,-216 463.54,-216 463.54,-252"/>
<text text-anchor="middle" x="386.54" y="-227.82" font-family="Times,serif" font-size="14.00">yandex_vpc_subnet.net&#45;c</text>
</g>
<!-- [root] yandex_vpc_subnet.net&#45;c (expand)&#45;&gt;[root] yandex_vpc_network.network (expand) -->
<g id="edge9" class="edge">
<title>[root] yandex_vpc_subnet.net&#45;c (expand)&#45;&gt;[root] yandex_vpc_network.network (expand)</title>
<path fill="none" stroke="black" d="M386.75,-215.68C386.15,-196.49 382.65,-165.43 367.54,-144 358.83,-131.66 346.25,-121.63 333.39,-113.74"/>
<polygon fill="black" stroke="black" points="335.44,-110.31 325.03,-108.38 331.97,-116.39 335.44,-110.31"/>
</g>
<!-- [root] provider[&quot;registry.terraform.io/yandex&#45;cloud/yandex&quot;] (close) -->
<g id="node7" class="node">
<title>[root] provider[&quot;registry.terraform.io/yandex&#45;cloud/yandex&quot;] (close)</title>
<ellipse fill="none" stroke="black" cx="281.54" cy="-306" rx="246.78" ry="18"/>
<text text-anchor="middle" x="281.54" y="-299.82" font-family="Times,serif" font-size="14.00">[root] provider[&quot;registry.terraform.io/yandex&#45;cloud/yandex&quot;] (close)</text>
</g>
<!-- [root] provider[&quot;registry.terraform.io/yandex&#45;cloud/yandex&quot;] (close)&#45;&gt;[root] yandex_compute_instance.vm (expand) -->
<g id="edge1" class="edge">
<title>[root] provider[&quot;registry.terraform.io/yandex&#45;cloud/yandex&quot;] (close)&#45;&gt;[root] yandex_compute_instance.vm (expand)</title>
<path fill="none" stroke="black" d="M245.69,-287.7C226.59,-278.48 202.89,-267.03 182.45,-257.17"/>
<polygon fill="black" stroke="black" points="184.25,-253.66 173.72,-252.47 181.2,-259.97 184.25,-253.66"/>
</g>
<!-- [root] provider[&quot;registry.terraform.io/yandex&#45;cloud/yandex&quot;] (close)&#45;&gt;[root] yandex_vpc_subnet.net&#45;b (expand) -->
<g id="edge2" class="edge">
<title>[root] provider[&quot;registry.terraform.io/yandex&#45;cloud/yandex&quot;] (close)&#45;&gt;[root] yandex_vpc_subnet.net&#45;b (expand)</title>
<path fill="none" stroke="black" d="M281.54,-287.59C281.54,-263.5 281.54,-219.75 281.54,-191.03"/>
<polygon fill="black" stroke="black" points="285.04,-191.11 281.54,-181.11 278.04,-191.11 285.04,-191.11"/>
</g>
<!-- [root] provider[&quot;registry.terraform.io/yandex&#45;cloud/yandex&quot;] (close)&#45;&gt;[root] yandex_vpc_subnet.net&#45;c (expand) -->
<g id="edge3" class="edge">
<title>[root] provider[&quot;registry.terraform.io/yandex&#45;cloud/yandex&quot;] (close)&#45;&gt;[root] yandex_vpc_subnet.net&#45;c (expand)</title>
<path fill="none" stroke="black" d="M307.49,-287.7C320.74,-278.86 337.05,-267.99 351.41,-258.41"/>
<polygon fill="black" stroke="black" points="353.14,-260.81 359.51,-252.35 349.25,-254.98 353.14,-260.81"/>
</g>
<!-- [root] root -->
<g id="node8" class="node">
<title>[root] root</title>
<ellipse fill="none" stroke="black" cx="281.54" cy="-378" rx="45.95" ry="18"/>
<text text-anchor="middle" x="281.54" y="-371.82" font-family="Times,serif" font-size="14.00">[root] root</text>
</g>
<!-- [root] root&#45;&gt;[root] provider[&quot;registry.terraform.io/yandex&#45;cloud/yandex&quot;] (close) -->
<g id="edge4" class="edge">
<title>[root] root&#45;&gt;[root] provider[&quot;registry.terraform.io/yandex&#45;cloud/yandex&quot;] (close)</title>
<path fill="none" stroke="black" d="M281.54,-359.7C281.54,-352.24 281.54,-343.32 281.54,-334.97"/>
<polygon fill="black" stroke="black" points="285.04,-335.1 281.54,-325.1 278.04,-335.1 285.04,-335.1"/>
</g>
</g>
</svg>
